<mxfile host="app.diagrams.net" modified="2023-06-25T14:43:42.205Z" agent="Mozilla/5.0 (X11; Linux x86_64) AppleWebKit/537.36 (KHTML, like Gecko) Chrome/114.0.0.0 Safari/537.36" etag="7d9DhAshCrWjcuHa4TvC" version="21.5.0" type="github" pages="3">
  <diagram id="wTf1RqI4Zr4Ka6ZaDeev" name="Page-1">
    <mxGraphModel dx="874" dy="1165" grid="0" gridSize="10" guides="1" tooltips="1" connect="1" arrows="1" fold="1" page="0" pageScale="1" pageWidth="827" pageHeight="1169" math="0" shadow="0">
      <root>
        <mxCell id="0" />
        <mxCell id="1" parent="0" />
        <mxCell id="CyrqF9XMyJSYpWFoRWkW-1" value="مدير الموقع" style="shape=umlActor;verticalLabelPosition=bottom;verticalAlign=top;html=1;outlineConnect=0;fontSize=16;" parent="1" vertex="1">
          <mxGeometry x="406" y="196" width="30" height="60" as="geometry" />
        </mxCell>
        <mxCell id="CyrqF9XMyJSYpWFoRWkW-2" value="الزبون" style="shape=umlActor;verticalLabelPosition=bottom;verticalAlign=top;html=1;outlineConnect=0;fontSize=16;" parent="1" vertex="1">
          <mxGeometry x="-72" y="142" width="30" height="60" as="geometry" />
        </mxCell>
        <mxCell id="CyrqF9XMyJSYpWFoRWkW-3" value="" style="swimlane;startSize=0;fontSize=16;" parent="1" vertex="1">
          <mxGeometry y="-8" width="350" height="409" as="geometry" />
        </mxCell>
        <mxCell id="CyrqF9XMyJSYpWFoRWkW-7" value="استئجار" style="ellipse;whiteSpace=wrap;html=1;fontSize=16;" parent="CyrqF9XMyJSYpWFoRWkW-3" vertex="1">
          <mxGeometry x="48" y="91" width="120" height="80" as="geometry" />
        </mxCell>
        <mxCell id="CyrqF9XMyJSYpWFoRWkW-6" value="تسجيل" style="ellipse;whiteSpace=wrap;html=1;fontSize=16;" parent="CyrqF9XMyJSYpWFoRWkW-3" vertex="1">
          <mxGeometry x="48" y="11" width="120" height="80" as="geometry" />
        </mxCell>
        <mxCell id="CyrqF9XMyJSYpWFoRWkW-8" value="شراء" style="ellipse;whiteSpace=wrap;html=1;fontSize=16;" parent="CyrqF9XMyJSYpWFoRWkW-3" vertex="1">
          <mxGeometry x="46" y="171" width="120" height="80" as="geometry" />
        </mxCell>
        <mxCell id="CyrqF9XMyJSYpWFoRWkW-9" value="بيع شقة&amp;nbsp;" style="ellipse;whiteSpace=wrap;html=1;fontSize=16;" parent="CyrqF9XMyJSYpWFoRWkW-3" vertex="1">
          <mxGeometry x="44" y="251" width="120" height="80" as="geometry" />
        </mxCell>
        <mxCell id="CyrqF9XMyJSYpWFoRWkW-10" value="إيجار شقة&amp;nbsp;" style="ellipse;whiteSpace=wrap;html=1;fontSize=16;" parent="CyrqF9XMyJSYpWFoRWkW-3" vertex="1">
          <mxGeometry x="46" y="331" width="120" height="80" as="geometry" />
        </mxCell>
        <mxCell id="XCj3xdZs8bMcP071vpY_-6" value="قبول التسجيل" style="ellipse;whiteSpace=wrap;html=1;fontSize=16;" parent="CyrqF9XMyJSYpWFoRWkW-3" vertex="1">
          <mxGeometry x="206" y="164.5" width="120" height="80" as="geometry" />
        </mxCell>
        <mxCell id="XCj3xdZs8bMcP071vpY_-1" value="" style="endArrow=none;html=1;rounded=0;fontSize=12;startSize=14;endSize=14;sourcePerimeterSpacing=8;targetPerimeterSpacing=8;curved=1;exitX=0.5;exitY=0;exitDx=0;exitDy=0;exitPerimeter=0;" parent="1" source="CyrqF9XMyJSYpWFoRWkW-2" target="CyrqF9XMyJSYpWFoRWkW-6" edge="1">
          <mxGeometry width="50" height="50" relative="1" as="geometry">
            <mxPoint x="-29" y="137" as="sourcePoint" />
            <mxPoint x="21" y="87" as="targetPoint" />
          </mxGeometry>
        </mxCell>
        <mxCell id="XCj3xdZs8bMcP071vpY_-2" value="" style="endArrow=none;html=1;rounded=0;fontSize=12;startSize=14;endSize=14;sourcePerimeterSpacing=8;targetPerimeterSpacing=8;curved=1;exitX=1;exitY=0.3333333333333333;exitDx=0;exitDy=0;exitPerimeter=0;entryX=0;entryY=0.5;entryDx=0;entryDy=0;" parent="1" source="CyrqF9XMyJSYpWFoRWkW-2" target="CyrqF9XMyJSYpWFoRWkW-7" edge="1">
          <mxGeometry width="50" height="50" relative="1" as="geometry">
            <mxPoint x="-47" y="152" as="sourcePoint" />
            <mxPoint x="66.18812639235466" y="84.0871241645873" as="targetPoint" />
          </mxGeometry>
        </mxCell>
        <mxCell id="XCj3xdZs8bMcP071vpY_-3" value="" style="endArrow=none;html=1;rounded=0;fontSize=12;startSize=14;endSize=14;sourcePerimeterSpacing=8;targetPerimeterSpacing=8;curved=1;exitX=1;exitY=0.3333333333333333;exitDx=0;exitDy=0;exitPerimeter=0;entryX=0;entryY=0.5;entryDx=0;entryDy=0;" parent="1" source="CyrqF9XMyJSYpWFoRWkW-2" target="CyrqF9XMyJSYpWFoRWkW-8" edge="1">
          <mxGeometry width="50" height="50" relative="1" as="geometry">
            <mxPoint x="-32" y="172" as="sourcePoint" />
            <mxPoint x="58" y="133" as="targetPoint" />
          </mxGeometry>
        </mxCell>
        <mxCell id="XCj3xdZs8bMcP071vpY_-4" value="" style="endArrow=none;html=1;rounded=0;fontSize=12;startSize=14;endSize=14;sourcePerimeterSpacing=8;targetPerimeterSpacing=8;curved=1;entryX=0;entryY=0.5;entryDx=0;entryDy=0;exitX=1;exitY=0.3333333333333333;exitDx=0;exitDy=0;exitPerimeter=0;" parent="1" source="CyrqF9XMyJSYpWFoRWkW-2" target="CyrqF9XMyJSYpWFoRWkW-9" edge="1">
          <mxGeometry width="50" height="50" relative="1" as="geometry">
            <mxPoint x="-32" y="172" as="sourcePoint" />
            <mxPoint x="56" y="213" as="targetPoint" />
          </mxGeometry>
        </mxCell>
        <mxCell id="XCj3xdZs8bMcP071vpY_-5" value="" style="endArrow=none;html=1;rounded=0;fontSize=12;startSize=14;endSize=14;sourcePerimeterSpacing=8;targetPerimeterSpacing=8;curved=1;entryX=0;entryY=0.5;entryDx=0;entryDy=0;exitX=1;exitY=1;exitDx=0;exitDy=0;exitPerimeter=0;" parent="1" source="CyrqF9XMyJSYpWFoRWkW-2" target="CyrqF9XMyJSYpWFoRWkW-10" edge="1">
          <mxGeometry width="50" height="50" relative="1" as="geometry">
            <mxPoint x="-32" y="172" as="sourcePoint" />
            <mxPoint x="54" y="293" as="targetPoint" />
          </mxGeometry>
        </mxCell>
        <mxCell id="XCj3xdZs8bMcP071vpY_-7" value="" style="endArrow=none;html=1;rounded=0;fontSize=12;startSize=14;endSize=14;sourcePerimeterSpacing=8;targetPerimeterSpacing=8;curved=1;entryX=1;entryY=0.5;entryDx=0;entryDy=0;exitX=0;exitY=0.3333333333333333;exitDx=0;exitDy=0;exitPerimeter=0;" parent="1" source="CyrqF9XMyJSYpWFoRWkW-1" target="XCj3xdZs8bMcP071vpY_-6" edge="1">
          <mxGeometry width="50" height="50" relative="1" as="geometry">
            <mxPoint x="251" y="329" as="sourcePoint" />
            <mxPoint x="301" y="279" as="targetPoint" />
          </mxGeometry>
        </mxCell>
      </root>
    </mxGraphModel>
  </diagram>
  <diagram id="xHIfylE6GgK3lqdlmj6U" name="DFD">
    <mxGraphModel dx="1434" dy="772" grid="1" gridSize="10" guides="1" tooltips="1" connect="1" arrows="1" fold="1" page="1" pageScale="1" pageWidth="850" pageHeight="1100" math="0" shadow="0">
      <root>
        <mxCell id="0" />
        <mxCell id="1" parent="0" />
        <mxCell id="Qc_U0rAYabFZTpp4bNLj-1" value="المستخدم" style="rounded=1;whiteSpace=wrap;html=1;" vertex="1" parent="1">
          <mxGeometry x="47" y="335" width="130" height="110" as="geometry" />
        </mxCell>
        <mxCell id="Qc_U0rAYabFZTpp4bNLj-3" value="نظام التسجيل" style="ellipse;whiteSpace=wrap;html=1;aspect=fixed;" vertex="1" parent="1">
          <mxGeometry x="347" y="315" width="130" height="130" as="geometry" />
        </mxCell>
        <mxCell id="Qc_U0rAYabFZTpp4bNLj-5" value="مدير الموقع" style="rounded=1;whiteSpace=wrap;html=1;" vertex="1" parent="1">
          <mxGeometry x="667" y="325" width="130" height="110" as="geometry" />
        </mxCell>
        <mxCell id="Qc_U0rAYabFZTpp4bNLj-6" value="" style="endArrow=classic;html=1;rounded=0;exitX=1;exitY=0.25;exitDx=0;exitDy=0;entryX=0;entryY=0;entryDx=0;entryDy=0;" edge="1" parent="1" target="Qc_U0rAYabFZTpp4bNLj-3">
          <mxGeometry width="50" height="50" relative="1" as="geometry">
            <mxPoint x="178" y="362.5" as="sourcePoint" />
            <mxPoint x="668" y="370" as="targetPoint" />
          </mxGeometry>
        </mxCell>
        <mxCell id="Qc_U0rAYabFZTpp4bNLj-10" value="تعبئة المعلومات الشخصية" style="edgeLabel;html=1;align=center;verticalAlign=middle;resizable=0;points=[];" vertex="1" connectable="0" parent="Qc_U0rAYabFZTpp4bNLj-6">
          <mxGeometry x="-0.2079" y="-2" relative="1" as="geometry">
            <mxPoint as="offset" />
          </mxGeometry>
        </mxCell>
        <mxCell id="Qc_U0rAYabFZTpp4bNLj-7" value="عرض قوائم الطلبات" style="endArrow=classic;html=1;rounded=0;exitX=1;exitY=0;exitDx=0;exitDy=0;entryX=0;entryY=0.25;entryDx=0;entryDy=0;" edge="1" parent="1" source="Qc_U0rAYabFZTpp4bNLj-3" target="Qc_U0rAYabFZTpp4bNLj-5">
          <mxGeometry width="50" height="50" relative="1" as="geometry">
            <mxPoint x="208" y="373" as="sourcePoint" />
            <mxPoint x="351" y="344" as="targetPoint" />
          </mxGeometry>
        </mxCell>
        <mxCell id="Qc_U0rAYabFZTpp4bNLj-8" value="قبول&amp;nbsp;الطلب" style="endArrow=classic;html=1;rounded=0;exitX=-0.015;exitY=0.564;exitDx=0;exitDy=0;entryX=1;entryY=0.5;entryDx=0;entryDy=0;exitPerimeter=0;" edge="1" parent="1" source="Qc_U0rAYabFZTpp4bNLj-5" target="Qc_U0rAYabFZTpp4bNLj-3">
          <mxGeometry width="50" height="50" relative="1" as="geometry">
            <mxPoint x="498" y="460" as="sourcePoint" />
            <mxPoint x="653" y="479" as="targetPoint" />
          </mxGeometry>
        </mxCell>
        <mxCell id="Qc_U0rAYabFZTpp4bNLj-9" value="" style="endArrow=classic;html=1;rounded=0;exitX=1;exitY=0.75;exitDx=0;exitDy=0;entryX=0;entryY=1;entryDx=0;entryDy=0;" edge="1" parent="1" target="Qc_U0rAYabFZTpp4bNLj-3">
          <mxGeometry width="50" height="50" relative="1" as="geometry">
            <mxPoint x="178" y="417.5" as="sourcePoint" />
            <mxPoint x="351" y="344" as="targetPoint" />
          </mxGeometry>
        </mxCell>
        <mxCell id="Qc_U0rAYabFZTpp4bNLj-12" value="الدخول إلى لموقع باستخدام المعلومات" style="edgeLabel;html=1;align=center;verticalAlign=middle;resizable=0;points=[];" vertex="1" connectable="0" parent="Qc_U0rAYabFZTpp4bNLj-9">
          <mxGeometry x="-0.5219" y="1" relative="1" as="geometry">
            <mxPoint as="offset" />
          </mxGeometry>
        </mxCell>
        <mxCell id="Qc_U0rAYabFZTpp4bNLj-13" value="توليد رقم خاص" style="endArrow=classic;html=1;rounded=0;exitX=0;exitY=0.75;exitDx=0;exitDy=0;entryX=1;entryY=1;entryDx=0;entryDy=0;" edge="1" parent="1" source="Qc_U0rAYabFZTpp4bNLj-5" target="Qc_U0rAYabFZTpp4bNLj-3">
          <mxGeometry width="50" height="50" relative="1" as="geometry">
            <mxPoint x="675" y="397" as="sourcePoint" />
            <mxPoint x="487" y="390" as="targetPoint" />
          </mxGeometry>
        </mxCell>
        <mxCell id="NSK82OIOkTfN70QciDOt-1" value="المستخدمين" style="rounded=0;whiteSpace=wrap;html=1;" vertex="1" parent="1">
          <mxGeometry x="352" y="560" width="120" height="60" as="geometry" />
        </mxCell>
        <mxCell id="NSK82OIOkTfN70QciDOt-2" value="" style="endArrow=classic;html=1;rounded=0;exitX=0.75;exitY=0;exitDx=0;exitDy=0;entryX=0.723;entryY=0.946;entryDx=0;entryDy=0;entryPerimeter=0;" edge="1" parent="1" source="NSK82OIOkTfN70QciDOt-1" target="Qc_U0rAYabFZTpp4bNLj-3">
          <mxGeometry width="50" height="50" relative="1" as="geometry">
            <mxPoint x="400" y="530" as="sourcePoint" />
            <mxPoint x="450" y="480" as="targetPoint" />
          </mxGeometry>
        </mxCell>
        <mxCell id="NSK82OIOkTfN70QciDOt-3" value="" style="endArrow=classic;html=1;rounded=0;exitX=0.277;exitY=0.946;exitDx=0;exitDy=0;entryX=0.25;entryY=0;entryDx=0;entryDy=0;exitPerimeter=0;" edge="1" parent="1" source="Qc_U0rAYabFZTpp4bNLj-3" target="NSK82OIOkTfN70QciDOt-1">
          <mxGeometry width="50" height="50" relative="1" as="geometry">
            <mxPoint x="452" y="570" as="sourcePoint" />
            <mxPoint x="451" y="448" as="targetPoint" />
          </mxGeometry>
        </mxCell>
      </root>
    </mxGraphModel>
  </diagram>
  <diagram id="7IVNLUcVSvU3tUIChaOL" name="DFD2">
    <mxGraphModel dx="1434" dy="772" grid="1" gridSize="10" guides="1" tooltips="1" connect="1" arrows="1" fold="1" page="1" pageScale="1" pageWidth="850" pageHeight="1100" math="0" shadow="0">
      <root>
        <mxCell id="0" />
        <mxCell id="1" parent="0" />
        <mxCell id="uS72BXES3QQi1mKRlwHS-1" value="المستخدم" style="rounded=1;whiteSpace=wrap;html=1;" vertex="1" parent="1">
          <mxGeometry x="47" y="335" width="130" height="110" as="geometry" />
        </mxCell>
        <mxCell id="uS72BXES3QQi1mKRlwHS-2" value="نظام الطلبات" style="ellipse;whiteSpace=wrap;html=1;aspect=fixed;" vertex="1" parent="1">
          <mxGeometry x="347" y="315" width="130" height="130" as="geometry" />
        </mxCell>
        <mxCell id="uS72BXES3QQi1mKRlwHS-3" value="مدير الموقع" style="rounded=1;whiteSpace=wrap;html=1;" vertex="1" parent="1">
          <mxGeometry x="667" y="325" width="130" height="110" as="geometry" />
        </mxCell>
        <mxCell id="uS72BXES3QQi1mKRlwHS-4" value="" style="endArrow=classic;html=1;rounded=0;exitX=1;exitY=0.25;exitDx=0;exitDy=0;entryX=0;entryY=0;entryDx=0;entryDy=0;" edge="1" parent="1" target="uS72BXES3QQi1mKRlwHS-2">
          <mxGeometry width="50" height="50" relative="1" as="geometry">
            <mxPoint x="178" y="362.5" as="sourcePoint" />
            <mxPoint x="668" y="370" as="targetPoint" />
          </mxGeometry>
        </mxCell>
        <mxCell id="uS72BXES3QQi1mKRlwHS-5" value="الدخول إلى لموقع باستخدام المعلومات" style="edgeLabel;html=1;align=center;verticalAlign=middle;resizable=0;points=[];" vertex="1" connectable="0" parent="uS72BXES3QQi1mKRlwHS-4">
          <mxGeometry x="-0.2079" y="-2" relative="1" as="geometry">
            <mxPoint as="offset" />
          </mxGeometry>
        </mxCell>
        <mxCell id="uS72BXES3QQi1mKRlwHS-6" value="عرض قوائم الطلبات" style="endArrow=classic;html=1;rounded=0;exitX=1;exitY=0;exitDx=0;exitDy=0;entryX=0;entryY=0.25;entryDx=0;entryDy=0;" edge="1" parent="1" source="uS72BXES3QQi1mKRlwHS-2" target="uS72BXES3QQi1mKRlwHS-3">
          <mxGeometry width="50" height="50" relative="1" as="geometry">
            <mxPoint x="208" y="373" as="sourcePoint" />
            <mxPoint x="351" y="344" as="targetPoint" />
          </mxGeometry>
        </mxCell>
        <mxCell id="uS72BXES3QQi1mKRlwHS-7" value="قبول&amp;nbsp;الطلب" style="endArrow=classic;html=1;rounded=0;exitX=-0.015;exitY=0.564;exitDx=0;exitDy=0;entryX=1;entryY=0.5;entryDx=0;entryDy=0;exitPerimeter=0;" edge="1" parent="1" source="uS72BXES3QQi1mKRlwHS-3" target="uS72BXES3QQi1mKRlwHS-2">
          <mxGeometry width="50" height="50" relative="1" as="geometry">
            <mxPoint x="498" y="460" as="sourcePoint" />
            <mxPoint x="653" y="479" as="targetPoint" />
          </mxGeometry>
        </mxCell>
        <mxCell id="uS72BXES3QQi1mKRlwHS-8" value="" style="endArrow=classic;html=1;rounded=0;exitX=1;exitY=0.75;exitDx=0;exitDy=0;entryX=0;entryY=1;entryDx=0;entryDy=0;" edge="1" parent="1" target="uS72BXES3QQi1mKRlwHS-2">
          <mxGeometry width="50" height="50" relative="1" as="geometry">
            <mxPoint x="178" y="417.5" as="sourcePoint" />
            <mxPoint x="351" y="344" as="targetPoint" />
          </mxGeometry>
        </mxCell>
        <mxCell id="uS72BXES3QQi1mKRlwHS-9" value="تعبئة طلب استئجار شقة" style="edgeLabel;html=1;align=center;verticalAlign=middle;resizable=0;points=[];" vertex="1" connectable="0" parent="uS72BXES3QQi1mKRlwHS-8">
          <mxGeometry x="-0.5219" y="1" relative="1" as="geometry">
            <mxPoint as="offset" />
          </mxGeometry>
        </mxCell>
        <mxCell id="uS72BXES3QQi1mKRlwHS-11" value="عرض قوائم الشقق" style="endArrow=classic;html=1;rounded=0;exitX=0;exitY=0.5;exitDx=0;exitDy=0;entryX=1;entryY=0.5;entryDx=0;entryDy=0;" edge="1" parent="1" source="uS72BXES3QQi1mKRlwHS-2" target="uS72BXES3QQi1mKRlwHS-1">
          <mxGeometry width="50" height="50" relative="1" as="geometry">
            <mxPoint x="468" y="344" as="sourcePoint" />
            <mxPoint x="677" y="363" as="targetPoint" />
          </mxGeometry>
        </mxCell>
      </root>
    </mxGraphModel>
  </diagram>
</mxfile>
